
<svg width="150" height="46" fill="none" xmlns="http://www.w3.org/2000/svg" viewBox="0 0 177 55"><g clip-path="url(#prefix__clip0_136_2818)" fill="#fff"><path d="M55.728 42l.072 12.12 9 .12V30l-9.12-.12.048 12.12zM4.056 39.84v4.32l9.72-.12.096-8.52H4.056v4.32z" /><path fill-rule="evenodd" clip-rule="evenodd" d="M45.12.096c.88.048 1.752.304 2.616.768.888.48 1.536 1.032 1.992 1.776.384.6.792 1.512.936 2.04.144.528.168 1.392.096 1.92-.096.528-.36 1.344-.6 1.8-.24.456-.84 1.224-1.344 1.704-.528.456-1.368 1.008-1.896 1.176-.528.192-1.608.336-2.4.336-1.152 0-1.704-.144-2.76-.72-.72-.408-1.608-1.152-1.992-1.68-.36-.504-.768-1.536-.936-2.256-.216-1.104-.192-1.56.144-2.712.288-1.008.672-1.656 1.464-2.448.696-.696 1.488-1.2 2.232-1.44.624-.192 1.704-.312 2.448-.264zm-29.16.912c1.056 0 2.52.12 4.56.552l.12 8.4h-2.208c-1.632.024-2.448.12-3.024.432-.432.24-.912.768-1.128 1.248-.216.48-.36 1.56-.36 4.2h5.76V24h-5.76v11.52H4.08V24H0v-8.16h4.08v-2.832c0-1.776.144-3.336.384-4.248.192-.792.648-1.968 1.008-2.616C5.832 5.52 6.6 4.536 7.2 3.96c.6-.552 1.608-1.272 2.28-1.608.648-.36 1.944-.792 2.88-.984.936-.216 2.544-.36 3.6-.36zM73.2 15.216c2.016.072 3.144.216 4.2.6.792.288 2.184 1.032 3.096 1.656.912.624 2.088 1.656 2.592 2.328.528.648 1.32 1.968 1.752 2.88.456.912.984 2.592 1.224 3.72.288 1.464.36 2.712.288 4.44-.096 1.704-.312 2.952-.792 4.32-.336 1.056-1.008 2.52-1.44 3.24-.432.72-1.44 1.92-2.208 2.64-.768.744-1.776 1.56-2.232 1.848-.456.288-1.416.744-2.112 1.008-.672.288-2.088.6-3.12.72-1.152.144-2.544.12-3.648-.024-.984-.12-2.4-.432-3.12-.696-.72-.264-1.68-.72-2.88-1.536V30l-9-.12-.12-14.04h9.12v2.52l.648-.624a27.745 27.745 0 011.512-1.2c.456-.312 1.44-.744 2.16-.984 1.056-.336 1.896-.408 4.08-.336zm-6.24 10.656c-.648.744-1.056 1.536-1.224 2.328-.168.672-.216 1.752-.168 2.4.072.672.36 1.632.624 2.16.24.528.864 1.32 1.344 1.752.48.408 1.272.864 1.752 1.008.504.12 1.248.24 1.632.24.384 0 1.128-.12 1.608-.24.504-.144 1.296-.6 1.776-1.008.48-.432 1.104-1.224 1.368-1.752.384-.744.504-1.416.504-2.88s-.12-2.136-.504-2.88c-.264-.528-.912-1.32-1.416-1.728-.504-.432-1.392-.888-1.968-1.032-.552-.12-1.248-.24-1.56-.216-.288 0-1.032.168-1.68.36-.84.24-1.368.624-2.088 1.488z" /><path d="M23.808 27.792l.072 16.248h9.84l.12-32.52H23.76l.048 16.272zm16.008 2.232v14.16l9.84-.024V15.84h-9.84v14.184zM23.808 6.552l.072 4.848h9.84l.096-9.72H23.76l.048 4.872z" /></g><g clip-path="url(#prefix__clip1_136_2818)"><path fill-rule="evenodd" clip-rule="evenodd" d="M121.864 5.76h1.08c1.032 0 1.056.024 1.272.912.144.48 2.52 9.912 5.28 20.928 2.784 11.016 5.064 20.232 5.064 20.472 0 .36-.264.408-5.136.288l-2.064-8.52H107.2l-5.04 8.64H99.4c-1.608 0-2.808-.096-2.88-.24-.072-.144.552-1.344 1.392-2.712.84-1.344 6.576-10.848 12.744-21.12L121.864 5.76zm-11.736 29.304c-.024.144 3.336.24 7.968.24 7.56 0 8.04-.048 7.944-.432-.072-.24-1.104-4.632-2.304-9.768-1.2-5.16-2.208-9.408-2.232-9.432-.048-.024-2.592 4.272-5.688 9.576-3.096 5.28-5.664 9.72-5.688 9.816zm66.288-28.56l-.72 4.44-10.968.048c-6.048.024-10.992.096-10.992.12 0 .024-.504 2.904-2.28 12.648h8.352c6.504 0 8.352.072 8.352.312 0 .168-.12.96-.264 1.752-.12.792-.288 1.68-.48 2.52h-8.4c-5.424 0-8.4.072-8.4.24 0 .12-.528 3.384-1.2 7.248-.648 3.864-1.248 7.272-1.44 8.112h11.28c8.88 0 11.304.048 11.304.288 0 .168-.12.936-.264 1.752-.12.792-.288 1.68-.48 2.52h-27.84l.12-.552c.048-.288 1.68-9.552 3.6-20.568a7791.666 7791.666 0 013.624-20.472c.12-.384.984-.408 27.096-.408z" fill="#fff" /></g><defs><clipPath id="prefix__clip0_136_2818"><path fill="#fff" d="M0 0h86.4v54.24H0z" /></clipPath><clipPath id="prefix__clip1_136_2818"><path fill="#fff" transform="translate(96.4 5.76)" d="M0 0h80.16v42.72H0z" /></clipPath></defs></svg>